<svg width="64" height="64" viewBox="0 0 64 64" fill="none" xmlns="http://www.w3.org/2000/svg">
<path fill-rule="evenodd" clip-rule="evenodd" d="M56.2441 28.7531C55.5107 27.9045 38.2488 8 32.0001 8C25.7526 8 8.48957 27.9045 7.75789 28.7522L7.75702 28.7531C7.6851 28.8368 6 30.8487 6 33.1949C6 35.0209 6.11652 36.8587 6.11776 36.8766C6.12149 36.9612 6.16199 37.7375 6.57466 37.9484C6.64174 37.9828 6.71379 38 6.7887 38C6.94236 38 7.11292 37.9284 7.29864 37.7865C7.48423 37.6145 25.0704 21.3893 32.0001 21.3893C38.9309 21.3893 56.5169 37.6145 56.6937 37.7791C56.885 37.9264 57.0584 37.9995 57.2138 37.9995C57.2887 37.9995 57.3599 37.9824 57.4273 37.9484C57.8393 37.7375 57.8801 36.9612 57.8834 36.8728C57.8842 36.8587 58 35.0209 58 33.1949C58 30.8487 56.3153 28.8368 56.2441 28.7531ZM56.4294 35.4224C51.8895 31.3576 38.4024 19.7876 32.0004 19.7876C25.5951 19.7876 12.1177 31.3502 7.5759 35.4187C7.56995 35.2087 7.56411 35.0166 7.5586 34.8357C7.53892 34.1895 7.52361 33.6864 7.52361 33.0184C7.52361 33.0184 7.41267 31.6044 8.60945 30.1907C18.4567 20.87 28.7808 16.3102 29.0977 16.1706C29.1956 16.1273 29.2903 16.0857 29.3817 16.0455C30.4773 15.5638 31.1165 15.2828 31.4887 14.7971C32.01 14.1169 32.0076 13.0354 32.0018 10.4393C32.0012 10.1791 32.0006 9.90375 32.0004 9.61205C32.0004 9.61205 32.1375 9.60304 32.2253 9.6127C36.5603 10.023 48.2167 21.8407 55.1153 29.8293C55.1272 29.8435 56.4773 31.4746 56.4773 33.1949C56.4773 34.0002 56.4543 34.7948 56.4294 35.4224ZM56.2439 46.7531C55.5109 45.904 38.2484 26 31.9999 26C25.7524 26 8.48944 45.904 7.75762 46.7522L7.75676 46.7531C7.68503 46.8367 6 48.8486 6 51.1945C6 53.0206 6.11616 54.8582 6.11752 54.8762C6.12112 54.9608 6.16195 55.7374 6.57471 55.9481C6.64147 55.9829 6.7137 56 6.78853 56C6.94204 56 7.11268 55.9279 7.29833 55.7863C7.48423 55.6147 25.0703 39.3892 31.9999 39.3892C38.9307 39.3892 56.5168 55.6147 56.6934 55.7785C56.885 55.9256 57.0582 55.9996 57.2138 55.9996C57.2887 55.9996 57.3598 55.982 57.4272 55.9481C57.8389 55.7374 57.8799 54.9608 57.8832 54.8725L57.8836 54.8654C57.8914 54.7392 58 52.9614 58 51.1945C58 48.8486 56.315 46.8367 56.2439 46.7531ZM56.4294 53.4223C51.8896 49.357 38.4024 37.7873 32.0002 37.7873C25.5948 37.7873 12.1176 49.3497 7.57569 53.4185C7.56974 53.2082 7.5639 53.0159 7.55839 52.8349C7.53874 52.1888 7.52345 51.6859 7.52345 51.0176C7.52345 51.0176 7.41263 49.6042 8.60944 48.1902C18.4565 38.8698 28.7806 34.3099 29.0977 34.1702C29.1954 34.1271 29.2898 34.0856 29.3811 34.0455C30.477 33.5638 31.1164 33.2827 31.4886 32.797C32.0099 32.1169 32.0075 31.0354 32.0016 28.4394C32.001 28.1792 32.0004 27.9037 32.0002 27.6119C32.0002 27.6119 32.1374 27.6029 32.225 27.6127C36.5602 28.0228 48.2167 39.8403 55.1153 47.8291C55.1272 47.8432 56.4772 49.474 56.4772 51.1945C56.4772 51.9993 56.4543 52.7945 56.4294 53.4223Z" fill="white"/>
</svg>
