<svg width="64" height="64" viewBox="0 0 64 64" fill="none" xmlns="http://www.w3.org/2000/svg">
<path fill-rule="evenodd" clip-rule="evenodd" d="M28.48 6H51.36C52.8181 6 54 7.16404 54 8.6V44.1333C54 45.5693 52.8181 46.7333 51.36 46.7333H38.6185L34.5986 52.3883C33.2758 54.2547 31.408 55.6808 29.243 56.4773L25.84 57.7339V58H24.08V57.1333C24.0795 56.7723 24.3064 56.4488 24.6494 56.3213L28.6234 54.854C30.4555 54.1806 32.0359 52.9739 33.1546 51.3943L36.4678 46.7333H30.1318C28.3556 48.7362 26.0553 50.2207 23.4816 51.0251L22.9254 49.3784C28.8302 47.4397 32.0774 42.5404 31.1974 36.8984L31.1306 36.4651C31.0901 36.2073 31.1696 35.9454 31.347 35.7518L38.5182 27.9457C38.8562 27.5504 39.0411 27.0499 39.04 26.5331V26.3979C39.04 25.8153 38.8049 25.2565 38.3866 24.8444C37.5152 23.9859 36.1021 23.9857 35.2305 24.8439L23.8204 36.0794L22.5761 34.8539L25.8382 31.6412V20.7611L17.9182 26.7497C17.8936 26.7671 17.869 26.7844 17.8434 26.8C17.2559 27.154 16.8331 27.7211 16.666 28.3791L11.9439 46.9803C11.8215 47.4622 11.7597 47.957 11.76 48.4537V58H10V48.4537C9.99967 47.8153 10.0792 47.1792 10.2367 46.56L14.9579 27.9605C15.2307 26.8769 15.9198 25.9399 16.8798 25.3466L25.84 18.5727V8.6C25.84 7.16404 27.022 6 28.48 6ZM51.36 45C51.846 45 52.24 44.6119 52.24 44.1333V8.6C52.24 8.12138 51.846 7.73333 51.36 7.73333H28.48C27.994 7.73333 27.6 8.12138 27.6 8.6V29.9079L33.9862 23.6185C34.7349 22.8804 35.7511 22.4659 36.8105 22.4662C39.0146 22.4669 40.8008 24.2272 40.8 26.3979V26.5331C40.7996 27.4715 40.4588 28.3787 39.839 29.0915L32.9337 36.6089V36.6332C33.4249 39.5148 32.8767 42.4749 31.384 45H51.36Z" fill="white"/>
<path fill-rule="evenodd" clip-rule="evenodd" d="M48.9963 15.9511C49.387 15.2992 49.5953 14.5569 49.6 13.8C49.6 11.4068 47.63 9.46667 45.2 9.46667C42.77 9.46667 40.8 11.4068 40.8 13.8C40.8047 14.5569 41.013 15.2992 41.4037 15.9511C40.176 18.012 40.8772 20.6628 42.9699 21.8719C43.646 22.2626 44.416 22.468 45.2 22.4667C47.6262 22.4706 49.5963 20.5368 49.6002 18.1474C49.6015 17.3753 49.393 16.617 48.9963 15.9511ZM46.0393 20.6046C45.7685 20.6923 45.485 20.7358 45.2 20.7333C43.7556 20.7466 42.5739 19.6042 42.5604 18.1817C42.5578 17.9004 42.6019 17.6206 42.6911 17.3533C44.1959 18.3947 46.2023 18.3947 47.7071 17.3533C48.1582 18.7047 47.4114 20.1604 46.0393 20.6046ZM42.56 13.8C42.56 15.236 43.7419 16.4 45.2 16.4C46.658 16.4 47.84 15.236 47.84 13.8C47.84 12.364 46.658 11.2 45.2 11.2C43.7419 11.2 42.56 12.364 42.56 13.8Z" fill="white"/>
<rect x="29.36" y="11.2" width="1.76" height="13" fill="white"/>
<rect x="32.88" y="12.0667" width="1.76" height="8.66667" fill="white"/>
<rect x="39.04" y="32" width="1.76" height="3.46667" fill="white"/>
<rect x="39.04" y="37.2" width="1.76" height="4.33333" fill="white"/>
<rect x="45.2" y="25.0667" width="1.76" height="17.3333" fill="white"/>
<rect x="48.72" y="25.0667" width="1.76" height="17.3333" fill="white"/>
</svg>
