<svg width="64" height="64" viewBox="0 0 64 64" fill="none" xmlns="http://www.w3.org/2000/svg">
<path fill-rule="evenodd" clip-rule="evenodd" d="M49.4469 26.8H55.4C56.836 26.8 58 27.964 58 29.4V34.6C58 36.036 56.836 37.2 55.4 37.2H49.4469C49.0893 38.3983 48.6059 39.5554 48.0047 40.6519L52.2254 44.8726L52.229 44.8762C53.2403 45.8894 53.2386 47.5308 52.2254 48.5421L48.5421 52.2254C47.5275 53.2358 45.8871 53.2358 44.8726 52.2254L40.6519 48.0047C39.5554 48.6057 38.3983 49.0888 37.2 49.446V55.4C37.2 56.836 36.036 58 34.6 58H29.4C27.964 58 26.8 56.836 26.8 55.4V49.446C25.6017 49.0888 24.4446 48.6057 23.3481 48.0047L19.1274 52.2254C18.1129 53.2358 16.4725 53.2358 15.4579 52.2254L11.7746 48.5421L11.771 48.5385C10.7597 47.5252 10.7613 45.8839 11.7746 44.8726L15.9953 40.6519C15.3941 39.5554 14.9107 38.3983 14.5531 37.2H8.6C7.16404 37.2 6 36.036 6 34.6V29.4C6 27.964 7.16404 26.8 8.6 26.8H14.5531C14.9107 25.6017 15.3941 24.4446 15.9953 23.3481L11.7746 19.1274L11.771 19.1238C10.7597 18.1106 10.7613 16.4692 11.7746 15.4579L15.4579 11.7746C16.4725 10.7642 18.1129 10.7642 19.1274 11.7746L23.3481 15.9953C24.4446 15.3945 25.6017 14.9113 26.8 14.554V8.6C26.8 7.16404 27.964 6 29.4 6H34.6C36.036 6 37.2 7.16404 37.2 8.6V14.554C38.3983 14.9113 39.5554 15.3945 40.6519 15.9953L44.8726 11.7746C45.8871 10.7642 47.5275 10.7642 48.5421 11.7746L52.2254 15.4579L52.229 15.4615C53.2403 16.4748 53.2388 18.1161 52.2254 19.1274L48.0047 23.3481C48.6059 24.4446 49.0893 25.6017 49.4469 26.8ZM55.4 35.4667C55.8786 35.4667 56.2667 35.0786 56.2667 34.6V29.4C56.2667 28.9214 55.8786 28.5333 55.4 28.5333H48.7873C48.3916 28.5335 48.046 28.2656 47.9475 27.8825C47.5646 26.3934 46.9692 24.9672 46.1795 23.6479C45.976 23.3069 46.0303 22.8713 46.3113 22.5906L50.9999 17.9019L51.003 17.8989C51.3375 17.5626 51.3362 17.0188 50.9999 16.6843L47.3166 13.0001C46.9762 12.6732 46.4384 12.6732 46.0981 13.0001L41.4094 17.6887C41.1287 17.969 40.6935 18.0228 40.3529 17.8196C39.033 17.0308 37.6067 16.4356 36.1175 16.0525C35.7344 15.954 35.4664 15.6084 35.4667 15.2127V8.6C35.4667 8.12138 35.0786 7.73333 34.6 7.73333H29.4C28.9214 7.73333 28.5333 8.12138 28.5333 8.6V15.2127C28.5339 15.6087 28.266 15.9548 27.8825 16.0533C26.3931 16.4376 24.9668 17.0339 23.6471 17.8239C23.3065 18.0272 22.8713 17.9733 22.5906 17.6931L17.9019 13.0044C17.5616 12.6776 17.0238 12.6776 16.6834 13.0044L13.0001 16.6877C12.6655 17.023 12.6655 17.5658 13.0001 17.9011L17.6887 22.5906C17.9698 22.8713 18.024 23.3069 17.8205 23.6479C17.0308 24.9672 16.4354 26.3934 16.0525 27.8825C15.954 28.2656 15.6084 28.5335 15.2127 28.5333H8.6C8.12138 28.5333 7.73333 28.9214 7.73333 29.4V34.6C7.73333 35.0786 8.12138 35.4667 8.6 35.4667H15.2127C15.6096 35.467 15.9556 35.737 16.0525 36.1219C16.4354 37.6109 17.0308 39.0371 17.8205 40.3564C18.024 40.6974 17.9698 41.133 17.6887 41.4137L13.0001 46.1024C12.6655 46.4377 12.6655 46.9804 13.0001 47.3157L16.6834 50.9999C17.0238 51.3268 17.5616 51.3268 17.9019 50.9999L22.5906 46.3113C22.8711 46.0308 23.3062 45.9765 23.6471 46.1795C24.9669 46.9687 26.3932 47.5643 27.8825 47.9475C28.2658 48.046 28.5335 48.3916 28.5333 48.7873V55.4C28.5333 55.8786 28.9214 56.2667 29.4 56.2667H34.6C35.0786 56.2667 35.4667 55.8786 35.4667 55.4V48.7873C35.4664 48.3916 35.7344 48.046 36.1175 47.9475C37.6068 47.5643 39.0331 46.9687 40.3529 46.1795C40.6937 45.9765 41.1289 46.0307 41.4094 46.3113L46.0981 50.9999C46.4384 51.3268 46.9762 51.3268 47.3166 50.9999L50.9999 47.3166L51.003 47.3136C51.3375 46.9773 51.3362 46.4335 50.9999 46.0989L46.3113 41.4094C46.0303 41.1287 45.976 40.6931 46.1795 40.3521C46.9692 39.0328 47.5646 37.6066 47.9475 36.1175C48.046 35.7342 48.3916 35.4664 48.7873 35.4667H55.4Z" fill="white"/>
<path fill-rule="evenodd" clip-rule="evenodd" d="M23.3333 32C23.3333 27.2135 27.2135 23.3333 32 23.3333C36.7843 23.3385 40.6615 27.2157 40.6667 32C40.6667 36.7865 36.7865 40.6666 32 40.6666C27.2135 40.6666 23.3333 36.7865 23.3333 32ZM25.0667 32C25.0667 35.8291 28.1708 38.9333 32 38.9333C35.8274 38.929 38.929 35.8274 38.9333 32C38.9333 28.1708 35.8291 25.0666 32 25.0666C28.1708 25.0666 25.0667 28.1708 25.0667 32Z" fill="white"/>
</svg>
