<svg width="64" height="64" viewBox="0 0 64 64" fill="none" xmlns="http://www.w3.org/2000/svg">
<path fill-rule="evenodd" clip-rule="evenodd" d="M19.5983 10.6176C25.5713 7.12595 32.5733 6.11957 39.3205 7.78291L39.8122 7.90902C46.3433 9.64888 51.8333 13.7214 55.3149 19.4227L55.6006 19.9023L55.8752 20.387C57.8483 23.9607 58.9224 27.9405 59 32L56.9816 31.9946L56.9652 31.4776L56.9342 30.9236C56.6833 27.2345 55.5376 23.6383 53.5821 20.4359C50.2909 15.0468 45.0494 11.2324 38.8273 9.69844C32.6054 8.16451 26.142 9.09348 20.6336 12.3134C18.087 13.802 15.8454 15.7393 14.0216 18.0223L12.694 19.7268L18.7177 18.1966L19.2245 20.1087L10.3129 22.3709L8 13.6528L9.95393 13.1571L11.3114 18.2704L12.0036 17.3538L12.3704 16.8798C14.3561 14.3753 16.8074 12.2491 19.5983 10.6176ZM9.67831 45.571C7.35084 41.7572 6.08329 37.4257 6 33L8.02057 33.0076L8.03716 33.5246L8.06768 34.0783C8.31594 37.7648 9.45924 41.3592 11.413 44.5604C14.7007 49.9477 19.9407 53.763 26.1633 55.3002C32.3857 56.8375 38.8508 55.9139 44.3631 52.7004C46.9114 51.2147 49.155 49.2806 50.981 47.0007L52.3111 45.2975L46.2836 46.8213L45.7768 44.9114L54.6927 42.6559L57 51.3693L55.045 51.8639L53.6925 46.7543L52.9997 47.6692L52.6325 48.1426C50.6443 50.6438 48.1907 52.7667 45.398 54.3947C41.3296 56.7666 36.7625 58 32.0989 58C29.9456 58 27.7891 57.7371 25.6683 57.2132C18.9207 55.5463 13.2436 51.4128 9.67831 45.571Z" fill="white"/>
</svg>
