<svg width="84" height="60" viewBox="0 0 84 60" fill="none" xmlns="http://www.w3.org/2000/svg">
<path fill-rule="evenodd" clip-rule="evenodd" d="M42.0446 10.6921C48.0739 10.6921 60.7758 21.1785 65.0513 24.8625C65.0747 24.2938 65.0964 23.5735 65.0964 22.8437C65.0964 21.2845 63.8249 19.8062 63.8137 19.7933C57.3168 12.5529 46.339 1.84204 42.2563 1.4702C42.1736 1.46144 42.0446 1.46961 42.0446 1.46961C42.0459 4.34308 42.1016 5.46812 41.5788 6.14844C41.2021 6.63858 40.525 6.89788 39.3108 7.41387C39.0124 7.54038 29.2893 11.6732 20.0154 20.1209C18.8883 21.4022 18.9928 22.6837 18.9928 22.6837C18.9928 23.2891 19.0072 23.7451 19.0258 24.3308C19.0309 24.4947 19.0364 24.6688 19.042 24.8592C23.3194 21.1717 36.0121 10.6921 42.0446 10.6921ZM42.0442 0.00854492C47.9292 0.00854492 64.1861 18.0488 64.8768 18.8179C64.9438 18.8938 66.5305 20.7172 66.5305 22.8437C66.5305 24.486 66.4231 26.1389 66.4207 26.1765L66.4206 26.1771C66.4176 26.2572 66.3791 26.9608 65.9911 27.152C65.9276 27.1827 65.8606 27.1982 65.79 27.1982C65.6437 27.1982 65.4804 27.132 65.3002 26.9985C65.1337 26.8494 48.5716 12.1438 42.0442 12.1438C35.518 12.1438 18.9557 26.8494 18.7809 27.0052C18.606 27.1339 18.4454 27.1987 18.3007 27.1987C18.2301 27.1987 18.1623 27.1831 18.0991 27.152C17.7104 26.9608 17.6723 26.2572 17.6688 26.1805C17.6676 26.1643 17.5579 24.4986 17.5579 22.8437C17.5579 20.7172 19.1449 18.8938 19.2126 18.8179L19.2134 18.8171C19.9025 18.0488 36.1605 0.00854492 42.0442 0.00854492ZM42.0445 27.8531C48.08 27.8531 60.7946 38.3497 65.0744 42.038C65.0979 41.4684 65.1195 40.747 65.1195 40.0168C65.1195 38.4559 63.8468 36.9763 63.8356 36.9636C57.3322 29.7157 46.3432 18.9943 42.2564 18.6222C42.1738 18.6134 42.0445 18.6215 42.0445 18.6215C42.0459 21.4979 42.1017 22.6242 41.5783 23.3052C41.2012 23.7958 40.5235 24.0553 39.3082 24.5716C39.0093 24.6983 29.2765 28.8353 19.9934 37.2911C18.8652 38.574 18.9697 39.8563 18.9697 39.8563C18.9697 40.4626 18.9841 40.9189 19.0026 41.5051C19.0078 41.6693 19.0133 41.8438 19.0189 42.0346C23.3007 38.3431 36.006 27.8531 42.0445 27.8531ZM42.0442 17.1592C47.9348 17.1592 64.2086 35.217 64.8995 35.9873C64.9666 36.0632 66.5551 37.8885 66.5551 40.0168C66.5551 41.62 66.4526 43.233 66.4454 43.3472L66.445 43.3536C66.4418 43.4337 66.4032 44.1383 66.015 44.3295C65.9515 44.3602 65.8845 44.3762 65.8139 44.3762C65.6672 44.3762 65.5039 44.3091 65.3233 44.1756C65.1568 44.027 48.578 29.3065 42.0442 29.3065C35.5115 29.3065 18.9327 44.027 18.7574 44.1827C18.5824 44.3111 18.4216 44.3766 18.2768 44.3766C18.2063 44.3766 18.1382 44.3611 18.0753 44.3295C17.6861 44.1383 17.6477 43.4337 17.6443 43.357C17.643 43.3407 17.5335 41.6735 17.5335 40.0168C17.5335 37.8885 19.122 36.0632 19.1896 35.9873L19.1904 35.9865C19.8803 35.217 36.1546 17.1592 42.0442 17.1592ZM53.1892 58.7883H53.1965C54.646 58.7883 56.211 57.6824 56.211 55.8953C56.211 54.1231 54.6775 53.0636 53.1961 53.0636C52.6047 53.0307 51.8857 53.0611 51.8676 53.0645C50.3935 53.0636 48.8611 54.1231 48.8611 55.8953C48.8611 57.6824 50.4254 58.7883 51.8749 58.7883C52.4442 58.8079 53.0246 58.7929 53.1892 58.7883ZM50.4362 51.9476C50.4539 51.9465 52.5486 51.9013 54.6097 51.9476C57.1751 52.0056 59.1856 53.7338 59.1856 55.8833C59.1856 58.0857 57.1334 59.878 54.6109 59.878C52.5486 59.9207 50.4546 59.8785 50.4378 59.878C47.9187 59.878 45.8707 58.0857 45.8707 55.8833C45.8707 53.7128 47.9183 51.9476 50.4362 51.9476ZM83.972 59.7763L81.4047 59.7768C81.0994 59.7768 81.0915 59.4783 81.0915 59.4759L81.092 55.8041C81.092 54.1672 79.8678 53.4042 79.0405 53.4042L76.0492 53.406C75.8561 53.406 75.6604 53.5441 75.6604 53.8063L75.6616 59.7768L72.9473 59.7757C72.812 59.7757 72.6749 59.6751 72.6749 59.4834L72.6741 52.3465C72.6741 52.0855 72.9211 52.0581 73.0274 52.0581L79.5216 52.0594C82.0161 52.0594 83.9709 53.7898 83.9709 55.997L83.972 59.7763ZM31.2308 53.5909L27.2246 53.5899C27.0085 53.5899 26.8322 53.7674 26.8322 53.9852V59.7777L24.1246 59.7767C23.9516 59.7767 23.8299 59.6226 23.8299 59.4834V55.2697C23.8299 54.4592 23.1573 53.5909 22.1564 53.5909L19.4873 53.5899L19.487 52.357C19.487 52.2108 19.596 52.059 19.7778 52.059H30.9431C31.1075 52.059 31.2308 52.1891 31.2308 52.3616V53.5909ZM15.1756 59.7776C15.0365 59.7776 14.8809 59.6566 14.8809 59.4833L14.8824 52.351C14.8824 52.1926 15.0165 52.0571 15.1756 52.0571H17.5937C17.7497 52.0571 17.8812 52.1926 17.8812 52.3514V59.7767L16.556 59.7776C15.6463 59.7776 15.3851 59.7776 15.3076 59.7965C15.3169 59.7876 15.3285 59.7776 15.3285 59.7776H15.1756ZM35.8249 54.1314V55.6723H40.5167C41.1386 55.6723 41.6443 55.1625 41.6443 54.5361C41.6443 53.9291 41.1337 53.4157 40.5296 53.4157H36.5453C36.1203 53.4157 35.8249 53.7099 35.8249 54.1314ZM44.6308 59.7785H41.6521C41.5828 58.6983 40.6489 57.0395 38.3784 57.0395H35.8249C35.8249 57.0395 35.8265 59.6779 35.8269 59.7768C35.7279 59.7768 33.1237 59.774 33.1237 59.774C32.9576 59.774 32.8367 59.6517 32.8367 59.4824V53.6339C32.8367 52.7508 33.5212 52.0585 34.3943 52.0585L41.5982 52.057C43.4679 52.057 44.6246 53.3477 44.6246 54.5436C44.6246 55.6686 43.734 56.6563 42.4579 56.9447L42.4193 56.9534L42.4167 57.0588L42.4548 57.073C42.6748 57.155 44.5837 57.9235 44.6308 59.7785ZM13.2462 54.6486H10.331C10.1767 54.6486 10.1023 54.5398 10.0835 54.5069C9.5603 53.61 8.5227 53.0306 7.44228 53.0306C6.89488 53.0029 6.29822 53.0233 6.1287 53.03C4.64688 53.0306 3.11733 54.1056 3.10774 55.9047L3.10692 55.9217C3.10692 57.731 4.64033 58.813 6.12144 58.813C6.12144 58.813 6.8448 58.8377 7.44415 58.813C8.54153 58.813 9.55222 58.2421 10.0796 57.3224C10.1354 57.2243 10.2198 57.1753 10.3295 57.1753H13.2438C12.5809 58.8872 11.0433 59.8694 8.89976 59.9345C6.58555 60.0043 6.39684 60.0023 4.63261 59.939C2.05809 59.8484 0.11673 58.1162 0.11673 55.9088C0.117432 54.8407 0.59429 53.8346 1.45827 53.0727C2.34355 52.2929 3.24789 51.9613 4.68467 51.888C5.91413 51.8256 6.55513 51.8394 7.9595 51.8698L8.85542 51.888C10.8657 51.9274 12.6148 53.0351 13.2462 54.6486ZM64.0098 58.3903H71.068C71.0683 58.4847 71.0683 59.4887 71.0683 59.4887C71.0683 59.5631 71.0356 59.6355 70.9767 59.6915C70.92 59.7455 70.8464 59.7763 70.7751 59.7763L62.1779 59.7768C61.1943 59.7768 60.6074 58.9786 60.6074 58.2059L60.6067 52.3613C60.6067 52.0668 60.8747 52.0584 60.9056 52.0584H70.7228C70.7324 52.0581 70.8914 52.0522 70.9885 52.1461C71.0406 52.1965 71.0667 52.269 71.0667 52.3613V53.4435H64.0579C63.9047 53.4435 63.7864 53.4864 63.7058 53.5703C63.6006 53.6803 63.6021 53.8208 63.6023 53.8331L63.6023 53.8338L63.6053 55.1768H69.7225L69.7228 56.5315L63.6053 56.5311V58.0023C63.6053 58.2306 63.7718 58.3903 64.0098 58.3903ZM67.8347 48.998C68.2403 48.998 68.5862 49.087 68.8731 49.2668C69.1605 49.4428 69.3038 49.658 69.3038 49.9072C69.3038 50.1589 69.164 50.3728 68.8827 50.5496C68.6026 50.728 68.2518 50.8155 67.8347 50.8155C67.431 50.8155 67.0571 50.7166 66.7962 50.5507C66.7437 50.517 66.6911 50.4805 66.638 50.4438C66.4281 50.2985 66.212 50.1489 65.9777 50.1489C65.7562 50.1489 65.5417 50.2986 65.3378 50.4409C65.2723 50.4867 65.2078 50.5317 65.1446 50.5707C64.8845 50.7297 64.5324 50.8155 64.1284 50.8155C63.7229 50.8155 63.378 50.728 63.0893 50.5496C62.803 50.3728 62.6582 50.1589 62.6582 49.9072C62.6582 49.658 62.803 49.4428 63.0893 49.2668C63.378 49.087 63.7229 48.998 64.1284 48.998C64.5336 48.998 64.8741 49.0925 65.1672 49.2668C65.2501 49.3158 65.3252 49.3696 65.3976 49.4215C65.5802 49.5523 65.7461 49.6711 65.9777 49.6711C66.2229 49.6711 66.408 49.5385 66.6023 49.3993C66.665 49.3544 66.7286 49.3088 66.7955 49.2668C67.0705 49.0925 67.4303 48.998 67.8347 48.998Z" fill="black"/>
</svg>
